<svg width="704" height="848" viewBox="0 0 704 848" fill="none" xmlns="http://www.w3.org/2000/svg">
<g clip-path="url(#clip0_12_90)">
<path fill-rule="evenodd" clip-rule="evenodd" d="M5.109 162.684C5.109 162.635 5.07101 162.595 5.022 162.593C-64.6318 158.988 -120 101.368 -120 30.817C-120 -42.059 -60.9221 -101.137 11.954 -101.137C19.912 -101.137 27.427 -105.187 31.583 -111.972C63.321 -163.791 120.462 -198.365 185.679 -198.365C275.596 -198.365 350.162 -132.643 363.961 -46.616C364.414 -43.794 366.89 -41.726 369.748 -41.726C426.22 -41.726 471.999 4.05299 471.999 60.524C471.999 116.996 426.22 162.775 369.748 162.775C368.587 162.775 367.43 162.755 366.278 162.717C366.262 162.716 366.249 162.729 366.249 162.746C366.249 162.762 366.236 162.775 366.22 162.775H185.679H5.2C5.14999 162.775 5.109 162.734 5.109 162.684Z" fill="url(#paint0_linear_12_90)"/>
<path fill-rule="evenodd" clip-rule="evenodd" d="M5.109 162.684C5.109 162.635 5.07101 162.595 5.022 162.593C-64.6318 158.988 -120 101.368 -120 30.817C-120 -42.059 -60.9221 -101.137 11.954 -101.137C19.912 -101.137 27.427 -105.187 31.583 -111.972C63.321 -163.791 120.462 -198.365 185.679 -198.365C275.596 -198.365 350.162 -132.643 363.961 -46.616C364.414 -43.794 366.89 -41.726 369.748 -41.726C426.22 -41.726 471.999 4.05299 471.999 60.524C471.999 116.996 426.22 162.775 369.748 162.775C368.587 162.775 367.43 162.755 366.278 162.717C366.262 162.716 366.249 162.729 366.249 162.746C366.249 162.762 366.236 162.775 366.22 162.775H185.679H5.2C5.14999 162.775 5.109 162.734 5.109 162.684Z" fill="url(#paint1_linear_12_90)"/>
<path fill-rule="evenodd" clip-rule="evenodd" d="M324.185 546.257C324.185 546.223 324.212 546.196 324.245 546.194C372.579 543.692 411 503.709 411 454.753C411 404.183 370.005 363.188 319.435 363.188C313.913 363.188 308.698 360.378 305.814 355.669C283.791 319.711 244.14 295.72 198.885 295.72C136.49 295.72 84.7475 341.326 75.1721 401.021C74.858 402.979 73.1394 404.414 71.1562 404.414C31.9698 404.414 0.203003 436.181 0.203003 475.367C0.203003 514.553 31.9698 546.32 71.1562 546.32C71.962 546.32 72.7647 546.307 73.5641 546.28C73.5754 546.28 73.5848 546.289 73.5848 546.3C73.5848 546.311 73.5938 546.32 73.6048 546.32H198.885H324.122C324.157 546.32 324.185 546.292 324.185 546.257Z" fill="url(#paint2_linear_12_90)"/>
<path fill-rule="evenodd" clip-rule="evenodd" d="M324.185 546.257C324.185 546.223 324.212 546.196 324.245 546.194C372.579 543.692 411 503.709 411 454.753C411 404.183 370.005 363.188 319.435 363.188C313.913 363.188 308.698 360.378 305.814 355.669C283.791 319.711 244.14 295.72 198.885 295.72C136.49 295.72 84.7475 341.326 75.1721 401.021C74.858 402.979 73.1394 404.414 71.1562 404.414C31.9698 404.414 0.203003 436.181 0.203003 475.367C0.203003 514.553 31.9698 546.32 71.1562 546.32C71.962 546.32 72.7647 546.307 73.5641 546.28C73.5754 546.28 73.5848 546.289 73.5848 546.3C73.5848 546.311 73.5938 546.32 73.6048 546.32H198.885H324.122C324.157 546.32 324.185 546.292 324.185 546.257Z" fill="url(#paint3_linear_12_90)"/>
</g>
<g clip-path="url(#clip1_12_90)">
<path fill-rule="evenodd" clip-rule="evenodd" d="M-33.0579 829.427C-33.0579 829.393 -33.0846 829.366 -33.1182 829.364C-81.4522 826.862 -119.873 786.879 -119.873 737.923C-119.873 687.353 -78.878 646.358 -28.308 646.358C-22.7863 646.358 -17.571 643.548 -14.687 638.839C7.33601 602.881 46.987 578.89 92.242 578.89C154.637 578.89 206.379 624.496 215.955 684.191C216.269 686.149 217.988 687.584 219.971 687.584C259.157 687.584 290.924 719.351 290.924 758.537C290.924 797.723 259.157 829.49 219.971 829.49C219.165 829.49 218.362 829.477 217.563 829.45C217.552 829.45 217.542 829.459 217.542 829.47C217.542 829.481 217.533 829.49 217.522 829.49H92.242H-32.9948C-33.0296 829.49 -33.0579 829.462 -33.0579 829.427Z" fill="url(#paint4_linear_12_90)"/>
<path fill-rule="evenodd" clip-rule="evenodd" d="M-33.0579 829.427C-33.0579 829.393 -33.0846 829.366 -33.1182 829.364C-81.4522 826.862 -119.873 786.879 -119.873 737.923C-119.873 687.353 -78.878 646.358 -28.308 646.358C-22.7863 646.358 -17.571 643.548 -14.687 638.839C7.33601 602.881 46.987 578.89 92.242 578.89C154.637 578.89 206.379 624.496 215.955 684.191C216.269 686.149 217.988 687.584 219.971 687.584C259.157 687.584 290.924 719.351 290.924 758.537C290.924 797.723 259.157 829.49 219.971 829.49C219.165 829.49 218.362 829.477 217.563 829.45C217.552 829.45 217.542 829.459 217.542 829.47C217.542 829.481 217.533 829.49 217.522 829.49H92.242H-32.9948C-33.0296 829.49 -33.0579 829.462 -33.0579 829.427Z" fill="url(#paint5_linear_12_90)"/>
</g>
<path fill-rule="evenodd" clip-rule="evenodd" d="M180.087 562.156C180.087 562.118 180.057 562.086 180.018 562.084C124.295 559.2 80 513.104 80 456.664C80 398.363 127.262 351.1 185.563 351.1C191.93 351.1 197.942 347.86 201.266 342.432C226.657 300.977 272.37 273.318 324.543 273.318C396.477 273.318 456.13 325.896 467.169 394.717C467.531 396.975 469.512 398.628 471.798 398.628C516.976 398.628 553.599 435.252 553.599 480.429C553.599 525.606 516.976 562.229 471.798 562.229C470.87 562.229 469.944 562.214 469.022 562.183C469.01 562.183 468.999 562.193 468.999 562.206C468.999 562.219 468.989 562.229 468.976 562.229H324.543H180.16C180.12 562.229 180.087 562.196 180.087 562.156Z" fill="url(#paint6_linear_12_90)"/>
<path fill-rule="evenodd" clip-rule="evenodd" d="M308.087 562.156C308.087 562.118 308.057 562.086 308.018 562.084C252.295 559.2 208 513.104 208 456.664C208 398.363 255.262 351.1 313.563 351.1C319.93 351.1 325.942 347.86 329.266 342.432C354.657 300.977 400.37 273.318 452.543 273.318C524.477 273.318 584.13 325.896 595.169 394.717C595.531 396.975 597.512 398.628 599.798 398.628C644.976 398.628 681.599 435.252 681.599 480.429C681.599 525.606 644.976 562.229 599.798 562.229C598.87 562.229 597.944 562.214 597.022 562.183C597.01 562.183 596.999 562.193 596.999 562.206C596.999 562.219 596.989 562.229 596.976 562.229H452.543H308.16C308.12 562.229 308.087 562.196 308.087 562.156Z" fill="url(#paint7_linear_12_90)"/>
<defs>
<linearGradient id="paint0_linear_12_90" x1="279.552" y1="-162.365" x2="209.684" y2="253.04" gradientUnits="userSpaceOnUse">
<stop stop-color="white"/>
<stop offset="1" stop-color="#FCFBF7" stop-opacity="0"/>
</linearGradient>
<linearGradient id="paint1_linear_12_90" x1="279.552" y1="-162.365" x2="209.684" y2="253.04" gradientUnits="userSpaceOnUse">
<stop stop-color="white"/>
<stop offset="1" stop-color="#FCFBF7" stop-opacity="0"/>
</linearGradient>
<linearGradient id="paint2_linear_12_90" x1="133.745" y1="320.701" x2="182.227" y2="608.957" gradientUnits="userSpaceOnUse">
<stop stop-color="white"/>
<stop offset="1" stop-color="#FCFBF7" stop-opacity="0.2"/>
</linearGradient>
<linearGradient id="paint3_linear_12_90" x1="133.745" y1="320.701" x2="182.227" y2="608.957" gradientUnits="userSpaceOnUse">
<stop stop-color="white"/>
<stop offset="1" stop-color="#FCFBF7" stop-opacity="0.2"/>
</linearGradient>
<linearGradient id="paint4_linear_12_90" x1="157.382" y1="603.871" x2="108.899" y2="892.127" gradientUnits="userSpaceOnUse">
<stop stop-color="white"/>
<stop offset="1" stop-color="#FCFBF7" stop-opacity="0"/>
</linearGradient>
<linearGradient id="paint5_linear_12_90" x1="157.382" y1="603.871" x2="108.899" y2="892.127" gradientUnits="userSpaceOnUse">
<stop stop-color="white"/>
<stop offset="1" stop-color="#FCFBF7" stop-opacity="0"/>
</linearGradient>
<linearGradient id="paint6_linear_12_90" x1="399.642" y1="302.118" x2="343.747" y2="634.442" gradientUnits="userSpaceOnUse">
<stop stop-color="white"/>
<stop offset="1" stop-color="#FCFBF7" stop-opacity="0"/>
</linearGradient>
<linearGradient id="paint7_linear_12_90" x1="527.642" y1="302.118" x2="471.747" y2="634.442" gradientUnits="userSpaceOnUse">
<stop stop-color="white"/>
<stop offset="1" stop-color="#FCFBF7" stop-opacity="0"/>
</linearGradient>
<clipPath id="clip0_12_90">
<rect width="704" height="848" fill="white"/>
</clipPath>
<clipPath id="clip1_12_90">
<rect width="704" height="848" fill="white"/>
</clipPath>
</defs>
</svg>
