<svg width="14" height="16" viewBox="0 0 14 16" fill="none" xmlns="http://www.w3.org/2000/svg">
<path d="M6.90345 3.87109C7.79923 3.87109 8.58506 3.52603 9.26091 2.83589C9.93677 2.14575 10.2747 1.34324 10.2747 0.428362C10.2747 0.327882 10.2667 0.185095 10.2506 0C10.1326 0.0158653 10.0441 0.0290863 9.98506 0.0396632C9.159 0.156008 8.43218 0.555284 7.80459 1.23747C7.17701 1.91968 6.86323 2.64948 6.86323 3.42688C6.86323 3.51677 6.87663 3.66486 6.90345 3.87109ZM10.1138 16C10.7521 16 11.4575 15.569 12.2299 14.707C13.0023 13.845 13.5923 12.8323 14 11.6688C12.482 10.8967 11.723 9.7888 11.723 8.34506C11.723 7.13932 12.3372 6.10809 13.5655 5.25137C12.7126 4.19897 11.5862 3.67277 10.1862 3.67277C9.59616 3.67277 9.0571 3.76003 8.56897 3.93455L8.26323 4.04561L7.85287 4.20426C7.58467 4.30474 7.34061 4.355 7.12069 4.355C6.94904 4.355 6.72374 4.29681 6.44483 4.18046L6.13103 4.05354L5.83334 3.93455C5.39884 3.75475 4.93218 3.66484 4.43334 3.66484C3.0977 3.66484 2.02491 4.10907 1.21494 4.99752C0.404976 5.88596 0 7.05735 0 8.51165C0 10.5582 0.649037 12.4489 1.94713 14.1834C2.84828 15.3945 3.67165 16 4.41724 16C4.73372 16 5.04751 15.9392 5.35862 15.8175L5.75287 15.6589L6.06668 15.5478C6.50652 15.3945 6.91149 15.3178 7.2816 15.3178C7.67318 15.3178 8.12376 15.4156 8.63334 15.6113L8.88276 15.7065C9.40305 15.9022 9.81342 16 10.1138 16Z" fill="black"/>
</svg>
